<?xml version="1.0" encoding="UTF-8"?>
<!DOCTYPE svg PUBLIC "-//W3C//DTD SVG 1.1//EN" "http://www.w3.org/Graphics/SVG/1.1/DTD/svg11.dtd">
<!-- Creator: CorelDRAW 2020 (64-Bit) -->
<svg xmlns="http://www.w3.org/2000/svg" xml:space="preserve" width="111.923mm" height="47.757mm" version="1.1" style="shape-rendering:geometricPrecision; text-rendering:geometricPrecision; image-rendering:optimizeQuality; fill-rule:evenodd; clip-rule:evenodd"
viewBox="0 0 11192.3 4775.7"
 xmlns:xlink="http://www.w3.org/1999/xlink"
 xmlns:xodm="http://www.corel.com/coreldraw/odm/2003">
 <defs>
  <style type="text/css">
   <![CDATA[
    .fil1 {fill:#434242;fill-rule:nonzero}
    .fil0 {fill:#A3C626;fill-rule:nonzero}
   ]]>
  </style>
 </defs>
 <g id="Слой_x0020_1">
  <metadata id="CorelCorpID_0Corel-Layer"/>
  <g id="_1789002714192">
   <path class="fil0" d="M4775.84 2387.87c0,-293.75 -55.66,-573.93 -152.69,-833.81 -25.67,855.4 -895.11,1517.68 -1405.56,1955.95l1277.69 0c178.6,-334.64 280.56,-716.41 280.56,-1122.14zm-923.67 -1883.51c-404.54,-314.96 -911.76,-504.36 -1464.2,-504.36 -1318.83,0 -2387.97,1069.14 -2387.97,2387.87 0,1318.72 1069.14,2387.83 2387.97,2387.83 603.91,0 1153.8,-225.95 1574.32,-595.72l-1728.81 0 -5.27 -507.69c1041.67,-905.55 1680.23,-1517.96 1680.23,-2109.49 0,-219.84 -83.74,-497.26 -460.58,-497.26 -298.4,0 -586.26,172.85 -533.94,895.11l-607.14 0c-151.83,-837.42 303.57,-1502.25 1172.4,-1502.25 134.7,0 259.3,16.08 372.99,45.96z"/>
   <path class="fil1" d="M6990.65 1650.41l564.82 0c19.31,-429.6 -125.46,-1110.38 -1057.15,-1110.38 -685.57,0 -1182.83,410.43 -1182.83,1264.87 0,115.87 4.79,714.47 4.79,1086.18 0,926.99 642.16,1129.69 1182.84,1129.69 323.46,0 791.72,-72.45 1008.93,-308.98l0 -1477.25 -1062.07 0 0 535.88 473.15 0 0 651.74c-357.29,120.66 -1009.03,168.97 -1009.03,-651.74l0 -965.52c0,-574.5 265.56,-772.41 559.98,-772.41 304.19,0 516.57,154.49 516.57,617.92zm4201.34 1433.74c24.1,-1322.67 -1491.68,-883.44 -1477.3,-1622.02 4.8,-260.63 173.8,-429.64 449.05,-429.64 294.46,0 468.13,173.8 463.33,627.64l555.19 0c14.52,-410.42 -82.03,-1110.38 -999.21,-1110.38 -569.7,0 -1037.93,280.05 -1047.65,902.76 -24.11,1269.56 1501.4,854.44 1477.29,1622.05 -9.72,313.77 -236.66,453.74 -492.46,453.74 -299.26,0 -540.68,-173.79 -492.37,-695.16l-560.12 0c-62.72,690.37 241.46,1182.84 1047.69,1182.84 680.65,0 1066.83,-376.64 1076.56,-931.83zm-2550.38 888.27l-569.57 0 0 -3379.25 569.57 0 0 3379.25zm0 0l-569.57 0 0 -3379.25 569.57 0 0 3379.25z"/>
  </g>
 </g>
</svg>
