<svg height="463pt" viewBox="0 -24 463.975 463" width="463pt" xmlns="http://www.w3.org/2000/svg">
  <path
    d="M439.832 102.438C397.113 20.12 312.406-20.63 250.637 11.425c-61.77 32.058-77.211 124.777-34.492 207.097C258.863 300.84 343.57 341.59 405.34 309.531c61.77-32.054 77.215-124.773 34.492-207.094zm0 0"
    fill="#b5554e"/>
  <path
    d="M213.336 107.438c-61.77-32.055-146.473 8.69-189.195 91.011-42.72 82.317-27.274 175.04 34.496 207.094 61.77 32.055 146.476-8.691 189.195-91.012s27.273-175.039-34.496-207.094zm0 0"
    fill="#b5554e"/>
  <path
    d="M439.922 102.621C397.273 20.261 312.586-20.594 250.77 11.367c-2.215 1.14-4.239 2.535-6.344 3.832a58.344 58.344 0 007.289 41.285c20.797 36 48.512 20 69.312 56 20.797 36-6.922 52 13.88 88s48.511 20 69.32 56c12 20.746 7.886 34.864 6.222 49.977 57.313-34.473 70.856-123.926 29.473-203.84zm0 0"
    fill="#efa66a"/>
  <path
    d="M404.227 256.484c-20.801-36-48.512-20-69.32-56s6.91-52-13.88-88c-20.793-36-48.515-20-69.312-56a58.346 58.346 0 01-7.29-41.261c-56.382 34.918-69.495 123.75-28.374 203.152 42.648 82.398 127.336 123.2 189.152 91.254 1.84-.945 3.496-2.121 5.246-3.2 1.664-15.113 5.762-29.23-6.222-49.945zm0 0"
    fill="#b5554e"/>
  <path
    d="M24.05 198.621c42.65-82.36 127.337-123.2 189.153-91.254 2.215 1.14 4.238 2.535 6.344 3.832a58.344 58.344 0 01-7.29 41.285c-20.8 36-48.51 20-69.312 56-20.8 36 6.922 52-13.879 88-20.8 36-48.511 20-69.32 56-12 20.746-7.887 34.864-6.223 49.985-57.312-34.48-70.859-123.934-29.472-203.848zm0 0"
    fill="#b5554e"/>
  <path
    d="M59.746 352.484c20.8-36 48.512-20 69.32-56s-6.914-52 13.88-88c20.792-36 48.511-20 69.312-56a58.366 58.366 0 007.289-41.261c56.383 34.918 69.496 123.75 28.375 203.152-42.649 82.398-127.336 123.2-189.152 91.254-1.84-.945-3.497-2.121-5.247-3.2-1.664-15.113-5.761-29.23 6.223-49.945zm0 0"
    fill="#efa66a"/>
</svg>
